<svg xmlns="http://www.w3.org/2000/svg" xmlns:xlink="http://www.w3.org/1999/xlink"><defs>
    <style>
      .cls-1 {
        fill: #435993;
        fill-rule: evenodd;
      }
    </style>
  
    <style>
      .cls-1 {
        fill: #fff;
        fill-rule: evenodd;
      }
    </style>
  
    <style>
      .cls-1 {
        fill: #9e9e9e;
        fill-rule: evenodd;
      }
    </style>
  
    <style>
      .cls-1 {
        fill: #9e9e9e;
        fill-rule: evenodd;
      }
    </style>
  
    <style>
      .cls-1 {
        fill: #9e9e9e;
        fill-rule: evenodd;
      }
    </style>
  </defs><symbol id="icon-arrow-blue" viewBox="0 0 12.969 7.969">
  <metadata><?xpacket begin="﻿" id="W5M0MpCehiHzreSzNTczkc9d"?>
<x:xmpmeta xmlns:x="adobe:ns:meta/" x:xmptk="Adobe XMP Core 5.6-c140 79.160451, 2017/05/06-01:08:21        ">
   <rdf:RDF xmlns:rdf="http://www.w3.org/1999/02/22-rdf-syntax-ns#">
      <rdf:Description rdf:about=""/>
   </rdf:RDF>
</x:xmpmeta>
                                                                                                    
                                                                                                    
                                                                                                    
                                                                                                    
                                                                                                    
                                                                                                    
                                                                                                    
                                                                                                    
                                                                                                    
                                                                                                    
                                                                                                    
                                                                                                    
                                                                                                    
                                                                                                    
                                                                                                    
                                                                                                    
                                                                                                    
                                                                                                    
                                                                                                    
                                                                                                    
                           
<?xpacket end="w"?></metadata>

  <path id="Shape_2_copy" data-name="Shape 2 copy" class="cls-1" d="M539.763,152.234l-5.146,5.146,0.148,0.147-1.341,1.341-0.148-.148-0.148.148-1.34-1.341,0.148-.147-5.146-5.146,1.34-1.34,5.146,5.145,5.146-5.145Z" transform="translate(-526.781 -150.906)"/>
</symbol><symbol id="icon-arrow" viewBox="0 0 12.438 8.44">
  <metadata><?xpacket begin="﻿" id="W5M0MpCehiHzreSzNTczkc9d"?>
<x:xmpmeta xmlns:x="adobe:ns:meta/" x:xmptk="Adobe XMP Core 5.6-c140 79.160451, 2017/05/06-01:08:21        ">
   <rdf:RDF xmlns:rdf="http://www.w3.org/1999/02/22-rdf-syntax-ns#">
      <rdf:Description rdf:about=""/>
   </rdf:RDF>
</x:xmpmeta>
                                                                                                    
                                                                                                    
                                                                                                    
                                                                                                    
                                                                                                    
                                                                                                    
                                                                                                    
                                                                                                    
                                                                                                    
                                                                                                    
                                                                                                    
                                                                                                    
                                                                                                    
                                                                                                    
                                                                                                    
                                                                                                    
                                                                                                    
                                                                                                    
                                                                                                    
                                                                                                    
                           
<?xpacket end="w"?></metadata>

  <path class="cls-1" d="M627.707,1012.71l-7,7-0.207-.21-0.207.21-5-5,1.414-1.42,3.793,3.8,5.793-5.8Z" transform="translate(-615.281 -1011.28)"/>
</symbol><symbol id="icon-book"><path fill="#9e9e9e" d="M34.994 9.444V35.18a1.14 1.14 0 01-1.147 1.133l-.378.032v.528c0 .626-.523 1.13-1.17 1.13H13.44l-.091.009c-.014 0-.026-.008-.04-.008h-.136c-.645 0-1.169-.505-1.169-1.131V11.151c0-.625.524-1.132 1.17-1.132h.135c.014 0 .026-.008.04-.008l20.499-1.7a1.14 1.14 0 011.147 1.133zm-3.048 1.707c0-.067-.067-.122-.146-.122H13.172c-.079 0-.146.055-.146.122v25.721c0 .066.065.12.146.12H31.8c.08 0 .146-.054.146-.12zm2.025-1.707c0-.06-.044-.11-.102-.12l-7.971.695H31.8c.645 0 1.17.507 1.17 1.132v24.178l.787-.024.045-.004h.045a.124.124 0 00.124-.122zM29.006 32.2v.6c0 .664-.506 1.199-1.131 1.199h-10.74c-.624 0-1.13-.535-1.13-1.2V32.2c0-.662.506-1.199 1.13-1.199h10.74c.625 0 1.13.537 1.13 1.2zm-1 0c0-.123-.076-.199-.131-.199h-10.74c-.054 0-.13.076-.13.2v.599c0 .114.07.199.13.199h10.74c.061 0 .13-.085.13-.2zM22.5 27a6.5 6.5 0 110-13 6.5 6.5 0 010 13zm0-12a5.5 5.5 0 100 11 5.5 5.5 0 000-11zm1 32C10.542 47 0 36.458 0 23.5S10.542 0 23.5 0 47 10.542 47 23.5 36.458 47 23.5 47zm0-46C11.094 1 1 11.094 1 23.5S11.094 46 23.5 46 46 35.906 46 23.5 35.906 1 23.5 1z"/></symbol><symbol id="icon-circle" viewBox="0 0 47 47">
  <metadata><?xpacket begin="﻿" id="W5M0MpCehiHzreSzNTczkc9d"?>
<x:xmpmeta xmlns:x="adobe:ns:meta/" x:xmptk="Adobe XMP Core 5.6-c140 79.160451, 2017/05/06-01:08:21        ">
   <rdf:RDF xmlns:rdf="http://www.w3.org/1999/02/22-rdf-syntax-ns#">
      <rdf:Description rdf:about=""/>
   </rdf:RDF>
</x:xmpmeta>
                                                                                                    
                                                                                                    
                                                                                                    
                                                                                                    
                                                                                                    
                                                                                                    
                                                                                                    
                                                                                                    
                                                                                                    
                                                                                                    
                                                                                                    
                                                                                                    
                                                                                                    
                                                                                                    
                                                                                                    
                                                                                                    
                                                                                                    
                                                                                                    
                                                                                                    
                                                                                                    
                           
<?xpacket end="w"?></metadata>

  <path class="cls-1" d="M575.5,977.99h-1a2.5,2.5,0,0,1-2.5-2.5v-1a2.5,2.5,0,0,1,2.5-2.5h1a2.5,2.5,0,0,1,2.5,2.5v1A2.5,2.5,0,0,1,575.5,977.99Zm-1-5a1.5,1.5,0,0,0-1.5,1.5v1a1.5,1.5,0,0,0,1.5,1.5h1a1.5,1.5,0,0,0,1.5-1.5v-1a1.5,1.5,0,0,0-1.5-1.5h-1Zm22.51,3h-16v-2h16v2ZM575.5,988h-1a2.5,2.5,0,0,1-2.5-2.5v-1a2.5,2.5,0,0,1,2.5-2.5h1a2.5,2.5,0,0,1,2.5,2.5v1A2.5,2.5,0,0,1,575.5,988Zm-1-5a1.5,1.5,0,0,0-1.5,1.5v1a1.5,1.5,0,0,0,1.5,1.5h1a1.5,1.5,0,0,0,1.5-1.5v-1a1.5,1.5,0,0,0-1.5-1.5h-1Zm22.51,3h-16v-2h16v2ZM575.5,998h-1a2.5,2.5,0,0,1-2.5-2.5v-1a2.5,2.5,0,0,1,2.5-2.5h1a2.5,2.5,0,0,1,2.5,2.5v1A2.5,2.5,0,0,1,575.5,998Zm-1-5a1.5,1.5,0,0,0-1.5,1.5v1a1.5,1.5,0,0,0,1.5,1.5h1a1.5,1.5,0,0,0,1.5-1.5v-1a1.5,1.5,0,0,0-1.5-1.5h-1Zm22.51,3h-16v-2h16v2ZM584.5,1008A23.5,23.5,0,1,1,608,984.5,23.527,23.527,0,0,1,584.5,1008Zm0-46A22.5,22.5,0,1,0,607,984.5,22.526,22.526,0,0,0,584.5,962Z" transform="translate(-561 -961)"/>
</symbol><symbol id="icon-js" viewBox="0 0 47 47">
  <metadata><?xpacket begin="﻿" id="W5M0MpCehiHzreSzNTczkc9d"?>
<x:xmpmeta xmlns:x="adobe:ns:meta/" x:xmptk="Adobe XMP Core 5.6-c140 79.160451, 2017/05/06-01:08:21        ">
   <rdf:RDF xmlns:rdf="http://www.w3.org/1999/02/22-rdf-syntax-ns#">
      <rdf:Description rdf:about=""/>
   </rdf:RDF>
</x:xmpmeta>
                                                                                                    
                                                                                                    
                                                                                                    
                                                                                                    
                                                                                                    
                                                                                                    
                                                                                                    
                                                                                                    
                                                                                                    
                                                                                                    
                                                                                                    
                                                                                                    
                                                                                                    
                                                                                                    
                                                                                                    
                                                                                                    
                                                                                                    
                                                                                                    
                                                                                                    
                                                                                                    
                           
<?xpacket end="w"?></metadata>

  <path id="icon" class="cls-1" d="M578.356,1354h2.649v11.06a5.524,5.524,0,0,1-.374,2.09,4.359,4.359,0,0,1-1.04,1.55,4.483,4.483,0,0,1-1.582.95,5.849,5.849,0,0,1-2,.33,6.763,6.763,0,0,1-2.012-.28,4.106,4.106,0,0,1-1.583-.86,3.967,3.967,0,0,1-1.036-1.48,5.33,5.33,0,0,1-.372-2.08h2.649a3.406,3.406,0,0,0,.174,1.16,2,2,0,0,0,.483.78,1.967,1.967,0,0,0,.741.44,3.183,3.183,0,0,0,.956.14,2.427,2.427,0,0,0,.946-0.18,2.063,2.063,0,0,0,.742-0.53,2.426,2.426,0,0,0,.484-0.85,3.694,3.694,0,0,0,.173-1.18V1354Zm14.856,11.77a2.273,2.273,0,0,0-.144-0.84,1.671,1.671,0,0,0-.523-0.68,4.347,4.347,0,0,0-1.049-.59,16.681,16.681,0,0,0-1.715-.6,17.463,17.463,0,0,1-2.117-.75,7.47,7.47,0,0,1-1.671-1,4.207,4.207,0,0,1-1.1-1.3,3.5,3.5,0,0,1-.4-1.69,3.7,3.7,0,0,1,.414-1.73,4.122,4.122,0,0,1,1.163-1.36,5.439,5.439,0,0,1,1.8-.9,7.693,7.693,0,0,1,2.316-.32,7.155,7.155,0,0,1,2.438.38,5.338,5.338,0,0,1,1.825,1.03,4.483,4.483,0,0,1,1.142,1.51,4.287,4.287,0,0,1,.4,1.83h-2.779a2.913,2.913,0,0,0-.182-1.04,2.134,2.134,0,0,0-.557-0.82,2.635,2.635,0,0,0-.949-0.54,4.23,4.23,0,0,0-1.357-.19,4.415,4.415,0,0,0-1.279.16,2.51,2.51,0,0,0-.9.44,1.816,1.816,0,0,0-.53.69,2.133,2.133,0,0,0-.17.85,1.687,1.687,0,0,0,.844,1.44,8.765,8.765,0,0,0,2.575,1.07,14.917,14.917,0,0,1,2.349.86,6.526,6.526,0,0,1,1.649,1.06,3.827,3.827,0,0,1,.976,1.33,4.229,4.229,0,0,1,.32,1.68,3.732,3.732,0,0,1-1.55,3.1,5.457,5.457,0,0,1-1.8.84,8.664,8.664,0,0,1-2.36.29,8.823,8.823,0,0,1-2.283-.3,6.482,6.482,0,0,1-2.019-.92,4.889,4.889,0,0,1-1.44-1.53,4.146,4.146,0,0,1-.545-2.16h2.79a2.811,2.811,0,0,0,.27,1.27,2.356,2.356,0,0,0,.74.86,2.993,2.993,0,0,0,1.108.49,5.509,5.509,0,0,0,1.379.16,3.535,3.535,0,0,0,2.19-.57A1.829,1.829,0,0,0,593.212,1365.77ZM584.5,1386a23.5,23.5,0,1,1,23.5-23.5A23.525,23.525,0,0,1,584.5,1386Zm0-46a22.5,22.5,0,1,0,22.5,22.5A22.524,22.524,0,0,0,584.5,1340Z" transform="translate(-561 -1339)"/>
</symbol><symbol id="icon-text" viewBox="0 0 47 47">
  <metadata><?xpacket begin="﻿" id="W5M0MpCehiHzreSzNTczkc9d"?>
<x:xmpmeta xmlns:x="adobe:ns:meta/" x:xmptk="Adobe XMP Core 5.6-c140 79.160451, 2017/05/06-01:08:21        ">
   <rdf:RDF xmlns:rdf="http://www.w3.org/1999/02/22-rdf-syntax-ns#">
      <rdf:Description rdf:about=""/>
   </rdf:RDF>
</x:xmpmeta>
                                                                                                    
                                                                                                    
                                                                                                    
                                                                                                    
                                                                                                    
                                                                                                    
                                                                                                    
                                                                                                    
                                                                                                    
                                                                                                    
                                                                                                    
                                                                                                    
                                                                                                    
                                                                                                    
                                                                                                    
                                                                                                    
                                                                                                    
                                                                                                    
                                                                                                    
                                                                                                    
                           
<?xpacket end="w"?></metadata>

  <path id="icon" class="cls-1" d="M599.016,1667.99H583.01v-2h16.006v2Zm0,6H583.01v-2h16.006v2Zm0,6.01H583.01v-2h16.006v2Zm0,6h-29v-2h29v2Zm0,6h-29v-2h29v2ZM579,1666.99a1,1,0,0,1,1,1v9a1,1,0,0,1-1,1h-7a1,1,0,0,1-1-1v-9a1,1,0,0,1,1-1h7m0-1h-7a2,2,0,0,0-2,2v9a2,2,0,0,0,2,2h7a2,2,0,0,0,2-2v-9a2,2,0,0,0-2-2h0Zm5.5,37.01a23.5,23.5,0,1,1,23.5-23.5A23.525,23.525,0,0,1,584.5,1703Zm0-46a22.5,22.5,0,1,0,22.5,22.5A22.524,22.524,0,0,0,584.5,1657Z" transform="translate(-561 -1656)"/>
</symbol></svg>